Coordinates
version=1
nRows=10
nColumns=22
inDegrees=yes

Units are S.I. units (second, meters, Newtons, ...)
If the header above contains a line with 'inDegrees', this indicates whether rotational values are in degrees (yes) or radians (no).

endheader
time	pelvis_tilt	pelvis_list	pelvis_rotation	pelvis_tx	pelvis_ty	pelvis_tz	hip_flexion_r	hip_adduction_r	hip_rotation_r	knee_angle_r	ankle_angle_r	subtalar_angle_r	hip_flexion_l	hip_adduction_l	hip_rotation_l	knee_angle_l	ankle_angle_l	subtalar_angle_l	lumbar_extension	lumbar_bending	lumbar_rotation
      2.51000000	    -10.55762340	      5.73862150	    -39.99374130	     -0.49798256	      0.82844702	      0.03034949	      7.78841882	     -4.00807813	      4.79069001	    -69.28452593	     -6.98445278	      8.85879006	     32.52705274	     -5.49447705	     -4.08701712	    -47.89087852	     26.69766028	      1.79411057	     -9.85224694	     -3.52851512	     17.38721306
      2.52000000	    -10.24523053	      5.61277311	    -39.11877001	     -0.47914470	      0.82471364	      0.04021538	     10.86974872	     -4.14062627	      4.05123489	    -74.78077372	     -4.75041488	      7.36697166	     30.61055124	     -4.57767203	     -3.29424908	    -47.98673253	     28.85597995	      1.26110736	    -10.34709121	     -3.76846513	     16.18001959
      2.53000000	    -10.00483422	      5.56867607	    -38.25545003	     -0.46058920	      0.82100652	      0.05001397	     14.23159077	     -4.31800798	      3.37023852	    -79.87656899	     -2.61329646	      5.84133514	     28.71658489	     -3.71090470	     -2.48145093	    -47.88736089	     30.89321689	      0.84337911	    -10.76805191	     -4.00139553	     14.97982083
      2.54000000	     -9.87450329	      5.58897061	    -37.40159467	     -0.44219303	      0.81754734	      0.05984435	     17.86705183	     -4.51408953	      2.70753054	    -84.44311639	     -0.59904717	      4.31965998	     26.84088106	     -2.93708035	     -1.67896472	    -47.54793686	     32.72938514	      0.49444415	    -11.06878189	     -4.18409627	     13.78105243
      2.55000000	     -9.88393686	      5.63200594	    -36.56103791	     -0.42378229	      0.81457113	      0.06983713	     21.72387745	     -4.66654303	      2.04314649	    -88.34306841	      1.27006865	      2.87706665	     24.94022571	     -2.30747208	     -0.88412278	    -46.90575304	     34.30895555	      0.19488822	    -11.21987339	     -4.25895650	     12.59692703
      2.56000000	    -10.02723388	      5.64650927	    -35.73031836	     -0.40518595	      0.81226909	      0.08009094	     25.70045594	     -4.74377299	      1.33194073	    -91.46119140	      2.97562191	      1.58772549	     22.96534279	     -1.86317951	     -0.09438066	    -45.94751854	     35.57471878	     -0.04562376	    -11.23093244	     -4.18210219	     11.42717288
      2.57000000	    -10.28196210	      5.57899408	    -34.92381806	     -0.38624343	      0.81080839	      0.09071736	     29.66503567	     -4.72135675	      0.53859963	    -93.69991643	      4.51184282	      0.46959097	     20.85724941	     -1.64401139	      0.69539946	    -44.67362600	     36.46117459	     -0.21298678	    -11.12604617	     -3.91707185	     10.28099571
      2.58000000	    -10.61059489	      5.39680991	    -34.13502031	     -0.36679990	      0.81031594	      0.10175695	     33.47654414	     -4.61374908	     -0.37125928	    -94.98903495	      5.83045599	     -0.41374000	     18.57006788	     -1.64962057	      1.52115324	    -43.09216979	     36.91339244	     -0.26796538	    -10.94052227	     -3.44963998	      9.14336978
      2.59000000	    -10.96773186	      5.04268467	    -33.38168510	     -0.34676519	      0.81093470	      0.11332138	     36.95004881	     -4.39263705	     -1.41676125	    -95.27210063	      7.02602977	     -1.18795253	     16.04937745	     -1.92328564	      2.36876219	    -41.23529020	     36.81649071	     -0.20278399	    -10.73746571	     -2.75786740	      8.04164844
      2.60000000	    -11.34222126	      4.55495922	    -32.67445116	     -0.32615344	      0.81262977	      0.12541407	     40.04003622	     -4.08540665	     -2.55847175	    -94.56252772	      8.02567399	     -1.70228217	     13.34944533	     -2.42908084	      3.22454921	    -39.15425877	     36.10711890	      0.01101642	    -10.50388186	     -1.88560562	      6.96947553
